<svg width="15" height="15" viewBox="0 0 15 15" fill="none" xmlns="http://www.w3.org/2000/svg">
<path d="M5 12.5004L5 13.0004L5 13.0004L5 12.5004ZM10.8502 12.5004L10.8502 12.0004L10.8502 12.0004L10.8502 12.5004ZM12.076 11.4955L11.5857 11.3975L11.5857 11.3975L12.076 11.4955ZM12.826 7.74553L13.3163 7.84359L13.3163 7.84359L12.826 7.74553ZM8.75 6.25039L8.33397 5.97303C8.23169 6.12646 8.22215 6.32374 8.30916 6.48631C8.39617 6.64889 8.5656 6.75039 8.75 6.75039V6.25039ZM10.2661 3.97624L10.6821 4.25359L10.6821 4.25359L10.2661 3.97624ZM9.5292 2.07019L9.40794 2.55526L9.40794 2.55526L9.5292 2.07019ZM9.49948 2.06275L9.62074 1.57768L9.62074 1.57768L9.49948 2.06275ZM2.5 6.25039L2.5 5.75039C2.36739 5.75038 2.24022 5.80306 2.14645 5.89683C2.05268 5.9906 2 6.11778 2 6.25039H2.5ZM2.5 12.5004H2C2 12.7765 2.22386 13.0004 2.5 13.0004L2.5 12.5004ZM8.24724 2.46194L7.86761 2.13655L7.86761 2.13655L8.24724 2.46194ZM4.5 6.2504V12.5004H5.5V6.2504H4.5ZM5 13.0004L10.8502 13.0004L10.8502 12.0004L5 12.0004L5 13.0004ZM12.5663 11.5936L13.3163 7.84359L12.3357 7.64747L11.5857 11.3975L12.5663 11.5936ZM11.6002 5.75039H8.75V6.75039H11.6002V5.75039ZM9.16603 6.52774L10.6821 4.25359L9.85007 3.69889L8.33397 5.97303L9.16603 6.52774ZM9.65047 1.58511L9.62074 1.57768L9.37821 2.54783L9.40794 2.55526L9.65047 1.58511ZM5 5.7504L2.5 5.75039L2.5 6.75039L5 6.7504L5 5.7504ZM2 6.25039V12.5004H3V6.25039H2ZM2.5 13.0004L5 13.0004L5 12.0004L2.5 12.0004L2.5 13.0004ZM9.62074 1.57768C8.97768 1.41692 8.29899 1.63327 7.86761 2.13655L8.62686 2.78734C8.81174 2.57165 9.10261 2.47893 9.37821 2.54783L9.62074 1.57768ZM10.6821 4.25359C11.3534 3.24666 10.8245 1.87863 9.65047 1.58511L9.40794 2.55526C9.9111 2.68105 10.1378 3.26735 9.85007 3.69889L10.6821 4.25359ZM13.3163 7.84359C13.5328 6.7607 12.7046 5.75039 11.6002 5.75039V6.75039C12.0735 6.75039 12.4285 7.18338 12.3357 7.64747L13.3163 7.84359ZM10.8502 13.0004C11.6844 13.0004 12.4027 12.4116 12.5663 11.5936L11.5857 11.3975C11.5156 11.748 11.2078 12.0004 10.8502 12.0004V13.0004ZM7.86761 2.13655L4.62037 5.925L5.37963 6.57579L8.62686 2.78734L7.86761 2.13655Z" fill="#87898E"/>
</svg>
