<svg width="20" height="19" viewBox="0 0 20 19" fill="none" xmlns="http://www.w3.org/2000/svg">
<path d="M18.0166 18.5348C18.3119 18.8252 18.7868 18.8212 19.0772 18.5259C19.3676 18.2305 19.3636 17.7557 19.0683 17.4652L18.0166 18.5348ZM14.8004 13.2685C14.505 12.9781 14.0302 12.9821 13.7397 13.2775C13.4493 13.5728 13.4533 14.0477 13.7487 14.3381L14.8004 13.2685ZM8.8812 15.25C5.07103 15.25 2.00391 12.2161 2.00391 8.5H0.503906C0.503906 13.0682 4.2665 16.75 8.8812 16.75V15.25ZM2.00391 8.5C2.00391 4.78393 5.07103 1.75 8.8812 1.75V0.25C4.2665 0.25 0.503906 3.9318 0.503906 8.5H2.00391ZM8.8812 1.75C12.6914 1.75 15.7585 4.78393 15.7585 8.5H17.2585C17.2585 3.9318 13.4959 0.25 8.8812 0.25V1.75ZM15.7585 8.5C15.7585 12.2161 12.6914 15.25 8.8812 15.25V16.75C13.4959 16.75 17.2585 13.0682 17.2585 8.5H15.7585ZM19.0683 17.4652L14.8004 13.2685L13.7487 14.3381L18.0166 18.5348L19.0683 17.4652Z" fill="#87898E"/>
</svg>
