<svg width="20" height="20" viewBox="0 0 20 20" fill="none" xmlns="http://www.w3.org/2000/svg">
<path d="M18.9994 14.4767L18.2496 14.458C18.2495 14.4642 18.2494 14.4705 18.2494 14.4767H18.9994ZM18.9994 17.1864H18.2494L18.2494 17.1895L18.9994 17.1864ZM2.80811 1.00009V0.250087L2.8074 0.250088L2.80811 1.00009ZM5.52325 1.00009V1.75012L5.53062 1.75005L5.52325 1.00009ZM6.72131 1.43684L6.23284 2.00596V2.00596L6.72131 1.43684ZM6.41019 8.14484L5.88039 7.61399C5.64106 7.85285 5.59115 8.22232 5.75854 8.51612L6.41019 8.14484ZM11.8405 13.5644L11.4703 14.2167C11.7635 14.383 12.1317 14.3334 12.3703 14.0952L11.8405 13.5644ZM18.5709 13.264L19.1426 12.7786V12.7786L18.5709 13.264ZM8.04281 6.10428L8.77625 6.26101L8.04281 6.10428ZM13.8851 11.935L14.0412 12.6686L13.8851 11.935ZM17.0264 18.9929L17.0938 18.246C17.0712 18.2439 17.0485 18.2429 17.0258 18.2429L17.0264 18.9929ZM1.00706 2.96919L1.75706 2.96978C1.75708 2.947 1.75606 2.92424 1.75401 2.90155L1.00706 2.96919ZM18.2494 14.4767V17.1864H19.7494V14.4767H18.2494ZM2.80811 1.75009H5.52325V0.250088H2.80811V1.75009ZM5.53062 1.75005C5.78828 1.74752 6.03785 1.8386 6.23284 2.00596L7.20979 0.867724C6.73872 0.463408 6.13667 0.244026 5.51588 0.250124L5.53062 1.75005ZM5.75854 8.51612C7.11382 10.8949 9.0872 12.8643 11.4703 14.2167L12.2106 12.9121C10.0621 11.6928 8.28333 9.91749 7.06185 7.77357L5.75854 8.51612ZM17.9991 13.7494C18.167 13.9472 18.2561 14.1994 18.2496 14.458L19.7492 14.4953C19.7648 13.868 19.5488 13.257 19.1426 12.7786L17.9991 13.7494ZM6.23284 2.00596C6.35543 2.11118 6.51653 2.32916 6.68363 2.67844C6.84491 3.01557 6.98754 3.42365 7.09912 3.85282C7.3316 4.74707 7.38943 5.57289 7.30937 5.94755L8.77625 6.26101C8.93051 5.53916 8.801 4.43759 8.55086 3.47541C8.42112 2.97637 8.24862 2.47397 8.03675 2.0311C7.83069 1.60038 7.56061 1.16883 7.20979 0.867724L6.23284 2.00596ZM14.0412 12.6686C14.4183 12.5883 15.2499 12.6466 16.1485 12.8801C16.5799 12.9922 16.9897 13.1355 17.3278 13.2975C17.6782 13.4655 17.8953 13.6272 17.9991 13.7494L19.1426 12.7786C18.8417 12.4242 18.4084 12.1521 17.9762 11.9449C17.5317 11.7318 17.027 11.5585 16.5257 11.4283C15.5588 11.177 14.4523 11.0475 13.7289 11.2014L14.0412 12.6686ZM12.3703 14.0952C12.532 13.9338 12.6946 13.7535 12.8396 13.5953C12.991 13.4303 13.1317 13.2798 13.2753 13.1446C13.5686 12.8684 13.8112 12.7175 14.0412 12.6686L13.7289 11.2014C13.1012 11.335 12.6149 11.7061 12.2469 12.0526C12.0599 12.2287 11.887 12.4147 11.7341 12.5815C11.5748 12.7552 11.4423 12.9021 11.3107 13.0335L12.3703 14.0952ZM7.30937 5.94755C7.26052 6.17614 7.10977 6.41795 6.83294 6.71075C6.69747 6.85403 6.54667 6.99453 6.38127 7.1456C6.22279 7.29036 6.0421 7.45259 5.88039 7.61399L6.94 8.6757C7.07164 8.54432 7.21884 8.4121 7.39289 8.25313C7.56004 8.10046 7.74642 7.92793 7.9229 7.74128C8.26996 7.3742 8.64216 6.8885 8.77625 6.26101L7.30937 5.94755ZM17.0258 18.2429C8.41621 18.2497 1.75032 11.523 1.75706 2.96978L0.257065 2.96859C0.249675 12.3469 7.58379 19.7503 17.027 19.7429L17.0258 18.2429ZM18.2494 17.1895C18.2518 17.7851 17.6976 18.3004 17.0938 18.246L16.959 19.7399C18.4468 19.8741 19.7554 18.6595 19.7494 17.1834L18.2494 17.1895ZM1.75401 2.90155C1.7 2.30506 2.20998 1.75065 2.80881 1.75009L2.8074 0.250088C1.33717 0.25147 0.125752 1.55284 0.260121 3.03682L1.75401 2.90155Z" fill="#808080"/>
</svg>
