<svg width="15" height="15" viewBox="0 0 15 15" fill="none" xmlns="http://www.w3.org/2000/svg">
<path d="M10 2.4996L10 1.9996L10 1.9996L10 2.4996ZM4.14976 2.49961L4.14976 2.99961L4.14976 2.99961L4.14976 2.49961ZM2.92403 3.50447L3.41432 3.60253L3.41432 3.60253L2.92403 3.50447ZM2.17403 7.25447L1.68374 7.15641L1.68374 7.15641L2.17403 7.25447ZM6.25 8.74961L6.66603 9.02696C6.76831 8.87354 6.77785 8.67626 6.69084 8.51369C6.60383 8.35111 6.4344 8.24961 6.25 8.24961L6.25 8.74961ZM4.7339 11.0238L4.31788 10.7464L4.31788 10.7464L4.7339 11.0238ZM5.4708 12.9298L5.59206 12.4447L5.59206 12.4447L5.4708 12.9298ZM5.50052 12.9372L5.37926 13.4223L5.37926 13.4223L5.50052 12.9372ZM12.5 8.74961L12.5 9.24961C12.6326 9.24962 12.7598 9.19694 12.8536 9.10317C12.9473 9.0094 13 8.88222 13 8.74961L12.5 8.74961ZM12.5 2.49962L13 2.49962C13 2.22347 12.7761 1.99962 12.5 1.99962L12.5 2.49962ZM6.75276 12.5381L7.13239 12.8635L7.13239 12.8635L6.75276 12.5381ZM10.5 8.7496L10.5 2.4996L9.5 2.4996L9.5 8.7496L10.5 8.7496ZM10 1.9996L4.14975 1.99961L4.14976 2.99961L10 2.9996L10 1.9996ZM2.43374 3.40641L1.68374 7.15641L2.66432 7.35253L3.41432 3.60253L2.43374 3.40641ZM3.39976 9.24961L6.25 9.24961L6.25 8.24961L3.39976 8.24961L3.39976 9.24961ZM5.83398 8.47226L4.31788 10.7464L5.14993 11.3011L6.66603 9.02696L5.83398 8.47226ZM5.34953 13.4149L5.37926 13.4223L5.62179 12.4522L5.59206 12.4447L5.34953 13.4149ZM10 9.2496L12.5 9.24961L12.5 8.24961L10 8.2496L10 9.2496ZM13 8.74961L13 2.49962L12 2.49962L12 8.74961L13 8.74961ZM12.5 1.99962L10 1.9996L10 2.9996L12.5 2.99962L12.5 1.99962ZM5.37926 13.4223C6.02232 13.5831 6.70101 13.3667 7.13239 12.8635L6.37314 12.2127C6.18826 12.4283 5.89739 12.5211 5.62179 12.4522L5.37926 13.4223ZM4.31788 10.7464C3.64659 11.7533 4.17548 13.1214 5.34953 13.4149L5.59206 12.4447C5.0889 12.319 4.86223 11.7327 5.14993 11.3011L4.31788 10.7464ZM1.68374 7.15641C1.46716 8.23929 2.29542 9.24961 3.39976 9.24961L3.39976 8.24961C2.92647 8.24961 2.5715 7.81662 2.66432 7.35253L1.68374 7.15641ZM4.14976 1.99961C3.31556 1.99961 2.59734 2.58842 2.43374 3.40641L3.41432 3.60253C3.48443 3.25196 3.79224 2.99961 4.14976 2.99961L4.14976 1.99961ZM7.13239 12.8635L10.3796 9.075L9.62037 8.42421L6.37314 12.2127L7.13239 12.8635Z" fill="#87898E"/>
</svg>
